<svg width="24" height="24" viewBox="0 0 24 24" fill="none" xmlns="http://www.w3.org/2000/svg">
<rect width="24" height="24" fill="white" style="mix-blend-mode:multiply"/>
<path d="M7.12424 6.00001H15.0742C15.2601 6.91054 15.7774 7.71963 16.5259 8.27041C17.2744 8.82119 18.2008 9.07442 19.1254 8.98102C20.05 8.88762 20.907 8.45423 21.5302 7.76487C22.1534 7.07552 22.4985 6.17932 22.4985 5.25001C22.4985 4.3207 22.1534 3.4245 21.5302 2.73514C20.907 2.04579 20.05 1.6124 19.1254 1.519C18.2008 1.42559 17.2744 1.67883 16.5259 2.22961C15.7774 2.78039 15.2601 3.58948 15.0742 4.50001H7.12424C6.03022 4.50001 4.98101 4.93461 4.20742 5.70819C3.43383 6.48178 2.99923 7.53099 2.99923 8.62501C2.99923 9.71903 3.43383 10.7682 4.20742 11.5418C4.98101 12.3154 6.03022 12.75 7.12424 12.75H15.3742C16.0704 12.75 16.7381 13.0266 17.2304 13.5189C17.7227 14.0111 17.9992 14.6788 17.9992 15.375C17.9992 16.0712 17.7227 16.7389 17.2304 17.2312C16.7381 17.7234 16.0704 18 15.3742 18H8.92423C8.73837 17.0895 8.22104 16.2804 7.47254 15.7296C6.72404 15.1788 5.79769 14.9256 4.87309 15.019C3.94849 15.1124 3.0915 15.5458 2.46828 16.2351C1.84506 16.9245 1.5 17.8207 1.5 18.75C1.5 19.6793 1.84506 20.5755 2.46828 21.2649C3.0915 21.9542 3.94849 22.3876 4.87309 22.481C5.79769 22.5744 6.72404 22.3212 7.47254 21.7704C8.22104 21.2196 8.73837 20.4105 8.92423 19.5H15.3742C16.4683 19.5 17.5175 19.0654 18.2911 18.2918C19.0646 17.5182 19.4992 16.469 19.4992 15.375C19.4992 14.281 19.0646 13.2318 18.2911 12.4582C17.5175 11.6846 16.4683 11.25 15.3742 11.25H7.12424C6.42804 11.25 5.76036 10.9734 5.26808 10.4812C4.7758 9.98888 4.49923 9.3212 4.49923 8.62501C4.49923 7.92881 4.7758 7.26114 5.26808 6.76885C5.76036 6.27657 6.42804 6.00001 7.12424 6.00001ZM18.7492 3.00001C19.1942 3.00001 19.6293 3.13197 19.9993 3.3792C20.3693 3.62644 20.6577 3.97784 20.828 4.38897C20.9983 4.8001 21.0428 5.2525 20.956 5.68896C20.8692 6.12542 20.6549 6.52633 20.3402 6.841C20.0256 7.15567 19.6246 7.36996 19.1882 7.45678C18.7517 7.54359 18.2993 7.49903 17.8882 7.32874C17.4771 7.15844 17.1257 6.87005 16.8784 6.50004C16.6312 6.13003 16.4992 5.69502 16.4992 5.25001C16.4992 4.65327 16.7363 4.08098 17.1582 3.65902C17.5802 3.23706 18.1525 3.00001 18.7492 3.00001ZM5.24923 21C4.80423 21 4.36921 20.868 3.9992 20.6208C3.62919 20.3736 3.3408 20.0222 3.17051 19.611C3.00021 19.1999 2.95565 18.7475 3.04247 18.3111C3.12928 17.8746 3.34358 17.4737 3.65824 17.159C3.97291 16.8443 4.37382 16.6301 4.81028 16.5432C5.24674 16.4564 5.69914 16.501 6.11027 16.6713C6.52141 16.8416 6.87281 17.13 7.12004 17.5C7.36727 17.87 7.49924 18.305 7.49924 18.75C7.49924 19.3467 7.26218 19.919 6.84023 20.341C6.41827 20.763 5.84597 21 5.24923 21Z" fill="#3366FF"/>
</svg>
