<svg xmlns="http://www.w3.org/2000/svg" width="26" height="20" viewBox="0 0 26 20" fill="none">
  <mask id="mask0_6464_41722" style="mask-type:luminance" maskUnits="userSpaceOnUse" x="0" y="0" width="26" height="20">
    <path fill-rule="evenodd" clip-rule="evenodd" d="M0 1.5C0 0.947715 0.447715 0.5 1 0.5H25C25.5523 0.5 26 0.947715 26 1.5V19C26 19.5523 25.5523 20 25 20H1C0.447716 20 0 19.5523 0 19V1.5Z" fill="white"/>
  </mask>
  <g mask="url(#mask0_6464_41722)">
    <path fill-rule="evenodd" clip-rule="evenodd" d="M6.50146 0.5H19.5015V20H6.50146V0.5Z" fill="#F7FCFF"/>
    <path fill-rule="evenodd" clip-rule="evenodd" d="M12.9808 6.18591L13 15.9359H12.5129L12.8117 13.523C10.626 13.9164 9.62349 14.0138 9.80419 13.8155C9.98489 13.617 10.1273 13.3359 10.2314 12.972L7.3125 11.0246C7.61945 11.0208 7.89778 10.9446 8.14751 10.796C8.39719 10.6475 8.27239 10.1329 7.77293 9.25204L9.24666 9.46646L9.80419 8.8605L10.9161 10.0242H11.4159L10.9161 7.3587L11.812 7.85911L12.9808 6.18591ZM12.9808 6.18591L14.188 7.85911L15.0839 7.3587L14.5841 10.0242H15.0839L16.1958 8.8605L16.7533 9.46646L18.2271 9.25204C17.7276 10.1329 17.6028 10.6475 17.8525 10.796C18.1022 10.9446 18.3805 11.0208 18.6875 11.0246L15.7686 12.972C15.8727 13.3359 16.0151 13.617 16.1958 13.8155C16.3765 14.0138 15.374 13.9164 13.1883 13.523L13.4871 15.9359H13L12.9808 6.18591Z" fill="#E31D1C"/>
    <path fill-rule="evenodd" clip-rule="evenodd" d="M19.5015 0.5H26.0015V20H19.5015V0.5Z" fill="#E31D1C"/>
    <path fill-rule="evenodd" clip-rule="evenodd" d="M0 0.5H6.5V20H0V0.5Z" fill="#E31D1C"/>
  </g>
</svg>