<svg xmlns="http://www.w3.org/2000/svg" width="245" height="91" viewBox="0 0 160 65">
  <g id="W" transform="translate(0.186 0.152)">
    <path id="Path_59" data-name="Path 59" d="M27.452.074H26.176a.543.543,0,0,0-.515.374L17.385,25.767l-8-24.489A1.746,1.746,0,0,0,7.722.074H1.747A1.748,1.748,0,0,0,.089,2.367L8.57,28.313a1.746,1.746,0,0,0,1.659,1.2h7.2a1.576,1.576,0,0,0,1.5-1.088L27.968.787a.544.544,0,0,0-.515-.713" transform="translate(-0.001 -0.074)" fill="#00b5e2"/>
    <path id="Path_60" data-name="Path 60" d="M51.309.074H50.034a.543.543,0,0,0-.515.374L41.242,25.767l-8-24.489a1.745,1.745,0,0,0-1.659-1.2H25.6a1.748,1.748,0,0,0-1.659,2.293l8.481,25.946a1.746,1.746,0,0,0,1.659,1.2h7.2a1.577,1.577,0,0,0,1.5-1.088L51.825.787a.543.543,0,0,0-.515-.713" transform="translate(-10.58 -0.074)" fill="#003087"/>
  </g>
  <path id="estlake" d="M103.855,18.872c0-6.512,4.388-11.074,10.723-11.074,6,0,9.356,4.272,9.356,10.079a1.831,1.831,0,0,1-1.821,1.784H109.237a6.072,6.072,0,0,0,6.334,5.807,8.717,8.717,0,0,0,4.554-1.369c1.035-.5,1.781-.373,2.319.581l.5.829a1.578,1.578,0,0,1-.579,2.323,13.332,13.332,0,0,1-7.162,2.115C108.2,29.946,103.855,24.886,103.855,18.872Zm5.506-2.406h9.356c-.083-2.945-1.863-4.687-4.264-4.687C111.762,11.779,109.858,13.646,109.361,16.466ZM22.317,27.79a1.492,1.492,0,0,1-.414-2.365l.5-.746c.621-.871,1.324-.954,2.36-.415a9.461,9.461,0,0,0,4.719,1.451c1.822,0,2.939-.829,2.939-2.156,0-3.443-10.474-2.157-10.474-9.416C21.944,10,25.587,7.8,30.017,7.8A11.745,11.745,0,0,1,35.9,9.333a1.581,1.581,0,0,1,.621,2.323L36.1,12.4c-.5,1-1.283,1.12-2.318.664a9.382,9.382,0,0,0-4.015-1.037c-1.822,0-2.857.747-2.857,2.074,0,3.484,10.474,2.116,10.474,9.333,0,3.733-3.146,6.511-8.031,6.511A12.333,12.333,0,0,1,22.317,27.79ZM0,18.872C0,12.36,4.388,7.8,10.722,7.8c6,0,9.356,4.272,9.356,10.079a1.831,1.831,0,0,1-1.821,1.784H5.382a6.072,6.072,0,0,0,6.334,5.807A8.719,8.719,0,0,0,16.27,24.1c1.035-.5,1.78-.373,2.319.581l.5.829a1.578,1.578,0,0,1-.58,2.323,13.33,13.33,0,0,1-7.162,2.115C4.347,29.946,0,24.886,0,18.872Zm5.506-2.406h9.356C14.779,13.522,13,11.779,10.6,11.779,7.907,11.779,6,13.646,5.506,16.466ZM62.62,23.6c0-6.181,7.618-7.217,12.337-7.217h.869v-.5c0-2.779-1.78-3.732-3.933-3.732a9.53,9.53,0,0,0-4.388,1.2,1.555,1.555,0,0,1-2.318-.705l-.414-.788a1.547,1.547,0,0,1,.662-2.323A14.957,14.957,0,0,1,72.348,7.8c5.465,0,8.735,3.069,8.735,8.42V27.706a1.538,1.538,0,0,1-1.739,1.742H77.937a1.526,1.526,0,0,1-1.7-1.742v-.829a4.129,4.129,0,0,1,.083-.912H76.24a7.687,7.687,0,0,1-6.623,3.981C65.766,29.946,62.62,27.457,62.62,23.6Zm5.216-.457a2.87,2.87,0,0,0,3.188,2.779c2.939,0,4.844-2.987,4.844-5.558v-.788H75C72.348,19.577,67.836,19.992,67.836,23.144ZM41.16,21.9V12.775H40.043a1.526,1.526,0,0,1-1.7-1.742v-.706a1.555,1.555,0,0,1,1.739-1.742h1.2V4.272a1.573,1.573,0,0,1,1.739-1.741H44.68a1.573,1.573,0,0,1,1.739,1.741V8.586h3.063a1.573,1.573,0,0,1,1.739,1.742v.706a1.543,1.543,0,0,1-1.7,1.742H46.418v8.212c0,3.152,1.946,3.774,3.394,3.94,1.284.125,1.739.539,1.739,1.7v1.286c0,1.244-.7,1.742-2.152,1.742C45.631,29.656,41.16,27.623,41.16,21.9Zm12.344.953V1.742A1.543,1.543,0,0,1,55.2,0h1.821a1.543,1.543,0,0,1,1.7,1.742v20.7c0,2.074.869,2.447,1.656,2.53a1.35,1.35,0,0,1,1.283,1.493v1.41a1.566,1.566,0,0,1-1.739,1.783C57.106,29.655,53.5,28.909,53.5,22.853ZM99.89,29.448a2.1,2.1,0,0,1-2.028-1.2L92.935,20.2H90.2v7.507a1.538,1.538,0,0,1-1.739,1.742H86.684a1.555,1.555,0,0,1-1.739-1.742V1.742A1.573,1.573,0,0,1,86.684,0h1.781A1.555,1.555,0,0,1,90.2,1.742V15.761h2.608L97.2,9.456A2.161,2.161,0,0,1,99.269,8.3h1.987c1.408,0,1.863.954,1.076,2.074l-5.257,7.383v.083l6.21,9.54c.7,1.2.248,2.074-1.159,2.074Z" transform="translate(40.067 0.11)" fill="#003087" stroke="rgba(0,0,0,0)" stroke-width="1"/>
  <path id="pipeFittings" d="M-12583.321-6290.053l.539-1.832a4.773,4.773,0,0,0,2.484.752c1.593,0,2.79-.916,2.79-3.358v-.751c0-.4.021-.8.021-.8h-.021a2.6,2.6,0,0,1-2.6,1.761c-2.7,0-4.125-2.654-4.125-6.012,0-3.475,1.453-6.011,4.077-6.011a2.867,2.867,0,0,1,2.789,1.738h.049v-1.456h1.991v11.39c0,3.945-2.413,5.447-4.806,5.447A6.6,6.6,0,0,1-12583.321-6290.053Zm1.312-10.333c0,2.466.8,4.156,2.345,4.156,1.2,0,2.2-.985,2.2-4.085,0-3.124-1.031-4.017-2.3-4.017C-12581.307-6304.331-12582.01-6302.829-12582.01-6300.386Zm-88.957,10.967v-16.6h1.991v.822a7.959,7.959,0,0,1-.046.868h.046a2.976,2.976,0,0,1,3-1.972c2.673,0,4.055,2.56,4.055,6.2,0,3.828-1.593,6.271-4.171,6.271a2.854,2.854,0,0,1-2.719-1.644h-.048a6.564,6.564,0,0,1,.071.985v5.072Zm2.108-10.637c0,2.207.515,4.319,2.345,4.319,1.523,0,2.39-1.573,2.39-4.3,0-2.631-.749-4.321-2.344-4.321C-12667.944-6304.354-12668.858-6303.062-12668.858-6300.056Zm95.5,4.931.846-1.667a4.2,4.2,0,0,0,2.484,1.082,1.5,1.5,0,0,0,1.642-1.527c0-2.42-4.572-1.9-4.572-5.66a3.286,3.286,0,0,1,3.609-3.405,4.589,4.589,0,0,1,2.789.893l-.7,1.761a3.682,3.682,0,0,0-2.062-.751,1.418,1.418,0,0,0-1.55,1.456c0,2.4,4.548,1.855,4.548,5.589a3.342,3.342,0,0,1-3.631,3.522A5.062,5.062,0,0,1-12573.36-6295.125Zm-71.729-3.594a4.347,4.347,0,0,1,2.439-4.25v-.118a3.911,3.911,0,0,1-1.9-3.663,3.981,3.981,0,0,1,4.148-4.25,5.4,5.4,0,0,1,1.733.28l-.515,1.857a3.183,3.183,0,0,0-1.008-.165,2.228,2.228,0,0,0-2.134,2.489c0,1.291.681,2.677,2.226,2.677h1.947v-2.184h2.155v2.184h1.664v2H-12636v2.7c0,3.593-2.015,5.331-4.524,5.331C-12643.238-6293.833-12645.09-6295.782-12645.09-6298.719Zm2.25-.117c0,1.738.844,2.889,2.32,2.889,1.22,0,2.369-.822,2.369-3.545v-2.372h-2.062C-12641.688-6301.865-12642.84-6300.854-12642.84-6298.836Zm-17.415-1.337c0-3.594,1.712-6.13,4.616-6.13s4.079,2.583,4.079,5.4c0,.352-.022.7-.046,1.125h-6.447c.094,2.771,1.407,3.993,2.978,3.993a3.972,3.972,0,0,0,2.789-1.127l.587,1.689a5.315,5.315,0,0,1-3.609,1.387C-12658.543-6293.833-12660.255-6296.533-12660.255-6300.173Zm2.179-1.2h4.408c-.023-2.09-.681-3.123-2.017-3.123C-12657.044-6304.494-12657.865-6303.32-12658.076-6301.371Zm51.829,2.912v-5.589h-1.2v-1.832h1.268v-3.405h2.109v3.405h2.107v1.832h-2.107v5.355c0,2.347,1.031,2.675,1.852,2.675a1.475,1.475,0,0,0,.422-.046v2a4.476,4.476,0,0,1-.7.048C-12603.763-6294.021-12606.247-6294.491-12606.247-6298.459Zm-6.633,0v-5.589h-1.2v-1.832h1.266v-3.405h2.111v3.405h2.107v1.832h-2.107v5.355c0,2.347,1.03,2.675,1.852,2.675a1.47,1.47,0,0,0,.42-.046v2a4.442,4.442,0,0,1-.7.048C-12610.395-6294.021-12612.88-6294.491-12612.88-6298.459Zm24.331,4.344V-6302c0-1.174-.259-2.232-1.572-2.232-1.687,0-2.67,1.855-2.67,3.405v6.716h-2.18v-11.906h2.108v1.011a3.926,3.926,0,0,1-.071.751h.049a3.616,3.616,0,0,1,3.375-2.043c2.063,0,3.117,1.362,3.117,3.875v8.313Zm-11.368,0v-11.906h2.18v11.906Zm-18.214,0v-11.906h2.18v11.906Zm-9.259,0v-16.6h7.288v2h-5.086v5.519h4.314v1.972h-4.314v7.116Zm-48.523,0v-11.906h2.179v11.906Zm-11.089,0v-16.6h4.385c2.789,0,4.8,2.068,4.8,5.237,0,3.146-2.016,5.261-4.8,5.261h-2.182v6.105Zm2.2-8.1h1.829c1.758,0,2.906-1.27,2.906-3.265,0-2.019-1.194-3.24-2.884-3.24h-1.852Zm84.857-6.154v-2.349h2.227v2.349Zm-18.214,0v-2.349h2.228v2.349Zm-57.781,0v-2.349h2.226v2.349Z" transform="translate(12689.828 6349.837)" fill="#201547" stroke="rgba(0,0,0,0)" stroke-width="1"/>
</svg>
