<svg xmlns="http://www.w3.org/2000/svg" width="26" height="21" viewBox="0 0 26 21" fill="none">
  <mask id="mask0_6413_8869" style="mask-type:luminance" maskUnits="userSpaceOnUse" x="0" y="0" width="26" height="21">
    <path d="M0 1.64545C0 1.09316 0.447715 0.645447 1 0.645447H25C25.5523 0.645447 26 1.09316 26 1.64545V19.1454C26 19.6977 25.5523 20.1454 25 20.1454H1C0.447716 20.1454 0 19.6977 0 19.1454V1.64545Z" fill="white"/>
  </mask>
  <g mask="url(#mask0_6413_8869)">
    <path fill-rule="evenodd" clip-rule="evenodd" d="M0 0.645447H26V20.1454H0V0.645447Z" fill="#F7FCFF"/>
    <path fill-rule="evenodd" clip-rule="evenodd" d="M0 12.5619V14.1869H26V12.5619H0Z" fill="#E31D1C"/>
    <path fill-rule="evenodd" clip-rule="evenodd" d="M0 15.5416V17.1666H26V15.5416H0Z" fill="#E31D1C"/>
    <path fill-rule="evenodd" clip-rule="evenodd" d="M0 6.60474V8.22974H26V6.60474H0Z" fill="#E31D1C"/>
    <path fill-rule="evenodd" clip-rule="evenodd" d="M0 18.5191V20.1441H26V18.5191H0Z" fill="#E31D1C"/>
    <path fill-rule="evenodd" clip-rule="evenodd" d="M0 9.58228V11.2073H26V9.58228H0Z" fill="#E31D1C"/>
    <path fill-rule="evenodd" clip-rule="evenodd" d="M0 0.645447V2.27045H26V0.645447H0Z" fill="#E31D1C"/>
    <path fill-rule="evenodd" clip-rule="evenodd" d="M0 3.62299V5.24799H26V3.62299H0Z" fill="#E31D1C"/>
    <path d="M0 0.645447H16.25V11.2079H0V0.645447Z" fill="#2E42A5"/>
    <path fill-rule="evenodd" clip-rule="evenodd" d="M1.39912 3.03343L0.809336 3.44689L1.00845 2.71108L0.484619 2.24478H1.16881L1.39829 1.64429L1.66736 2.24478H2.25062L1.79234 2.71108L1.96976 3.44689L1.39912 3.03343ZM4.64912 3.03343L4.05934 3.44689L4.25845 2.71108L3.73462 2.24478H4.41881L4.64829 1.64429L4.91736 2.24478H5.50062L5.04234 2.71108L5.21976 3.44689L4.64912 3.03343ZM7.30934 3.44689L7.89912 3.03343L8.46976 3.44689L8.29231 2.71108L8.75064 2.24478H8.16735L7.89829 1.64429L7.66881 2.24478H6.98462L7.50845 2.71108L7.30934 3.44689ZM11.1491 3.03343L10.5593 3.44689L10.7585 2.71108L10.2346 2.24478H10.9188L11.1483 1.64429L11.4173 2.24478H12.0006L11.5423 2.71108L11.7198 3.44689L11.1491 3.03343ZM0.809336 6.69689L1.39912 6.28343L1.96976 6.69689L1.79234 5.96108L2.25062 5.49478H1.66736L1.39829 4.89429L1.16881 5.49478H0.484619L1.00845 5.96108L0.809336 6.69689ZM4.64912 6.28343L4.05934 6.69689L4.25845 5.96108L3.73462 5.49478H4.41881L4.64829 4.89429L4.91736 5.49478H5.50062L5.04234 5.96108L5.21976 6.69689L4.64912 6.28343ZM7.30934 6.69689L7.89912 6.28343L8.46976 6.69689L8.29231 5.96108L8.75064 5.49478H8.16735L7.89829 4.89429L7.66881 5.49478H6.98462L7.50845 5.96108L7.30934 6.69689ZM11.1491 6.28343L10.5593 6.69689L10.7585 5.96108L10.2346 5.49478H10.9188L11.1483 4.89429L11.4173 5.49478H12.0006L11.5423 5.96108L11.7198 6.69689L11.1491 6.28343ZM0.809336 9.9469L1.39912 9.53342L1.96976 9.9469L1.79234 9.2111L2.25062 8.74478H1.66736L1.39829 8.14429L1.16881 8.74478H0.484619L1.00845 9.2111L0.809336 9.9469ZM4.64912 9.53342L4.05934 9.9469L4.25845 9.2111L3.73462 8.74478H4.41881L4.64829 8.14429L4.91736 8.74478H5.50062L5.04234 9.2111L5.21976 9.9469L4.64912 9.53342ZM7.30934 9.9469L7.89912 9.53342L8.46976 9.9469L8.29231 9.2111L8.75064 8.74478H8.16735L7.89829 8.14429L7.66881 8.74478H6.98462L7.50845 9.2111L7.30934 9.9469ZM11.1491 9.53342L10.5593 9.9469L10.7585 9.2111L10.2346 8.74478H10.9188L11.1483 8.14429L11.4173 8.74478H12.0006L11.5423 9.2111L11.7198 9.9469L11.1491 9.53342ZM13.8093 3.44689L14.3991 3.03343L14.9698 3.44689L14.7923 2.71108L15.2506 2.24478H14.6673L14.3983 1.64429L14.1688 2.24478H13.4846L14.0085 2.71108L13.8093 3.44689ZM14.3991 6.28343L13.8093 6.69689L14.0085 5.96108L13.4846 5.49478H14.1688L14.3983 4.89429L14.6673 5.49478H15.2506L14.7923 5.96108L14.9698 6.69689L14.3991 6.28343ZM13.8093 9.9469L14.3991 9.53342L14.9698 9.9469L14.7923 9.2111L15.2506 8.74478H14.6673L14.3983 8.14429L14.1688 8.74478H13.4846L14.0085 9.2111L13.8093 9.9469ZM3.02412 4.65843L2.43434 5.07189L2.63345 4.33608L2.10962 3.86978H2.79381L3.02329 3.26929L3.29236 3.86978H3.87562L3.41734 4.33608L3.59476 5.07189L3.02412 4.65843ZM5.68434 5.07189L6.27412 4.65843L6.84476 5.07189L6.66734 4.33608L7.12562 3.86978H6.54236L6.27329 3.26929L6.04381 3.86978H5.35962L5.88345 4.33608L5.68434 5.07189ZM9.52414 4.65843L8.93435 5.07189L9.13349 4.33608L8.60959 3.86978H9.2938L9.52333 3.26929L9.79235 3.86978H10.3756L9.91731 4.33608L10.0948 5.07189L9.52414 4.65843ZM2.43434 8.32189L3.02412 7.90843L3.59476 8.32189L3.41734 7.58608L3.87562 7.11978H3.29236L3.02329 6.51929L2.79381 7.11978H2.10962L2.63345 7.58608L2.43434 8.32189ZM6.27412 7.90843L5.68434 8.32189L5.88345 7.58608L5.35962 7.11978H6.04381L6.27329 6.51929L6.54236 7.11978H7.12562L6.66734 7.58608L6.84476 8.32189L6.27412 7.90843ZM8.93435 8.32189L9.52414 7.90843L10.0948 8.32189L9.91731 7.58608L10.3756 7.11978H9.79235L9.52333 6.51929L9.2938 7.11978H8.60959L9.13349 7.58608L8.93435 8.32189ZM12.7741 4.65843L12.1843 5.07189L12.3835 4.33608L11.8596 3.86978H12.5438L12.7733 3.26929L13.0423 3.86978H13.6256L13.1673 4.33608L13.3448 5.07189L12.7741 4.65843ZM12.1843 8.32189L12.7741 7.90843L13.3448 8.32189L13.1673 7.58608L13.6256 7.11978H13.0423L12.7733 6.51929L12.5438 7.11978H11.8596L12.3835 7.58608L12.1843 8.32189Z" fill="#F7FCFF"/>
  </g>
</svg>