<svg xmlns="http://www.w3.org/2000/svg" width="20" height="21" viewBox="0 0 20 21" fill="none">
  <path d="M5.69833 18.3935H2.44714V7.92829H5.70356V18.3935H5.69833ZM4.07274 6.49543C3.57267 6.49543 3.0931 6.29678 2.7395 5.94318C2.3859 5.58958 2.18726 5.11002 2.18726 4.60996C2.18749 4.11005 2.38624 3.63068 2.73981 3.27727C3.09338 2.92386 3.57283 2.72534 4.07274 2.72534C4.57221 2.72649 5.0509 2.92542 5.40408 3.2786C5.75727 3.63178 5.95619 4.11048 5.95734 4.60996C5.95769 4.85751 5.90921 5.1027 5.81469 5.3315C5.72017 5.5603 5.58145 5.76821 5.40648 5.94334C5.23152 6.11847 5.02373 6.25738 4.79502 6.35211C4.56631 6.44685 4.32029 6.49554 4.07274 6.49543ZM17.8851 18.3935H14.6339V13.3013C14.6339 12.0865 14.6094 10.5254 12.9446 10.5254C11.2501 10.5254 10.9902 11.8475 10.9902 13.2132V18.3935H7.73905V7.92829H10.8585V9.35852H10.9022C11.215 8.8251 11.6665 8.38639 12.2087 8.08896C12.7509 7.79154 13.3635 7.64651 13.9815 7.66928C17.272 7.66928 17.8842 9.83907 17.8842 12.6586L17.8851 18.3935Z" fill="#3366FF"/>
</svg>