<svg xmlns="http://www.w3.org/2000/svg" width="20" height="21" viewBox="0 0 20 21" fill="none">
  <path fill-rule="evenodd" clip-rule="evenodd" d="M8.28001 12.7071V7.98807L12.78 10.3551L8.28001 12.7071ZM18.167 7.17006C18.0879 6.56795 17.86 5.99505 17.504 5.50307C17.286 5.28068 17.0263 5.10344 16.7397 4.98145C16.4532 4.85945 16.1454 4.7951 15.834 4.79207C13.502 4.62207 10.004 4.62207 10.004 4.62207H9.99602C9.99602 4.62207 6.49602 4.62207 4.16602 4.79207C3.53678 4.79814 2.93572 5.05389 2.49503 5.50307C2.13936 5.99514 1.91185 6.56804 1.83302 7.17006C1.72912 8.07245 1.67337 8.97974 1.66602 9.88806V11.1621C1.67332 12.0707 1.72907 12.9784 1.83302 13.8811C1.9118 14.4828 2.13933 15.0554 2.49503 15.5471C3.0008 16.0006 3.65372 16.2557 4.33302 16.2651C5.66702 16.3941 10 16.4341 10 16.4341C10 16.4341 13.5 16.4291 15.834 16.2591C16.463 16.2522 17.0636 15.9962 17.504 15.5471C17.8601 15.0555 18.088 14.4829 18.167 13.8811C18.2709 12.9783 18.3266 12.0707 18.334 11.1621V9.88806C18.3266 8.97974 18.2709 8.07245 18.167 7.17006Z" fill="#3366FF"/>
</svg>
